<mxfile host="app.diagrams.net" agent="Mozilla/5.0 (Windows NT 10.0; Win64; x64; rv:131.0) Gecko/20100101 Firefox/131.0" version="24.8.0">
  <diagram name="Page-1" id="Znelq4hGbChoTb0zUMEW">
    <mxGraphModel dx="2261" dy="1903" grid="1" gridSize="10" guides="1" tooltips="1" connect="1" arrows="1" fold="1" page="1" pageScale="1" pageWidth="827" pageHeight="1169" math="0" shadow="0">
      <root>
        <mxCell id="0" />
        <mxCell id="1" parent="0" />
        <mxCell id="u-PeWI92cw_HtkjGVOC9-124" value="&lt;p style=&quot;margin:0px;margin-top:4px;text-align:center;&quot;&gt;&lt;i&gt;&amp;lt;&amp;lt;Interface&amp;gt;&amp;gt;&lt;/i&gt;&lt;br&gt;&lt;b&gt;IGamersRepository&lt;/b&gt;&lt;/p&gt;&lt;hr size=&quot;1&quot; style=&quot;border-style:solid;&quot;&gt;&lt;hr size=&quot;1&quot; style=&quot;border-style:solid;&quot;&gt;&lt;p style=&quot;margin:0px;margin-left:4px;&quot;&gt;+ Add(Gamer): Gamer&lt;/p&gt;&lt;p style=&quot;margin:0px;margin-left:4px;&quot;&gt;+ Edit(Gamer): bool&lt;/p&gt;&lt;p style=&quot;margin:0px;margin-left:4px;&quot;&gt;+ Delete(GamerID): bool&lt;br&gt;&lt;/p&gt;&lt;p style=&quot;margin:0px;margin-left:4px;&quot;&gt;+ GetById(GamerID): Gamer&lt;/p&gt;&lt;p style=&quot;margin:0px;margin-left:4px;&quot;&gt;+ GetAll(): List&amp;lt;Gamer&amp;gt;&lt;/p&gt;&lt;p style=&quot;margin:0px;margin-left:4px;&quot;&gt;&lt;/p&gt;" style="verticalAlign=top;align=left;overflow=fill;html=1;whiteSpace=wrap;" parent="1" vertex="1">
          <mxGeometry x="-307" y="-240" width="170" height="140" as="geometry" />
        </mxCell>
        <mxCell id="u-PeWI92cw_HtkjGVOC9-125" value="&lt;p style=&quot;margin:0px;margin-top:4px;text-align:center;&quot;&gt;&lt;b&gt;Gamers&lt;/b&gt;&lt;b&gt;Repository&lt;/b&gt;&lt;/p&gt;&lt;hr size=&quot;1&quot; style=&quot;border-style:solid;&quot;&gt;&lt;p style=&quot;margin:0px;margin-left:4px;&quot;&gt;+ Gamers: List&amp;lt;Gamer&amp;gt;&lt;br&gt;&lt;/p&gt;&lt;hr size=&quot;1&quot; style=&quot;border-style:solid;&quot;&gt;&lt;p style=&quot;margin:0px;margin-left:4px;&quot;&gt;+ Add(Gamer): Gamer&lt;/p&gt;&lt;p style=&quot;margin:0px;margin-left:4px;&quot;&gt;+ Edit(Gamer): bool&lt;/p&gt;&lt;p style=&quot;margin:0px;margin-left:4px;&quot;&gt;+ Delete(GamerID): bool&lt;br&gt;&lt;/p&gt;&lt;p style=&quot;margin:0px;margin-left:4px;&quot;&gt;+ GetById(GamerID): Gamer&lt;/p&gt;&lt;p style=&quot;margin:0px;margin-left:4px;&quot;&gt;+ GetAll(): List&amp;lt;Gamer&amp;gt;&lt;/p&gt;" style="verticalAlign=top;align=left;overflow=fill;html=1;whiteSpace=wrap;" parent="1" vertex="1">
          <mxGeometry x="-57" y="-240" width="170" height="140" as="geometry" />
        </mxCell>
        <mxCell id="u-PeWI92cw_HtkjGVOC9-126" value="&lt;p style=&quot;margin:0px;margin-top:4px;text-align:center;&quot;&gt;&lt;b&gt;GamersController&lt;/b&gt;&lt;/p&gt;&lt;hr size=&quot;1&quot; style=&quot;border-style:solid;&quot;&gt;&lt;p style=&quot;margin:0px;margin-left:4px;&quot;&gt;+ GamersRepository: GamersRepository&lt;/p&gt;&lt;hr size=&quot;1&quot; style=&quot;border-style:solid;&quot;&gt;&lt;p style=&quot;margin:0px;margin-left:4px;&quot;&gt;+ AddGamer(Gamer): Gamer&lt;/p&gt;&lt;p style=&quot;margin:0px;margin-left:4px;&quot;&gt;+ EditGamer(Gamer): bool&lt;/p&gt;&lt;p style=&quot;margin:0px;margin-left:4px;&quot;&gt;+ DeleteGamer(GamerID): bool&lt;br&gt;&lt;/p&gt;&lt;p style=&quot;margin:0px;margin-left:4px;&quot;&gt;+ GetGamerById(GamerID): Gamer&lt;/p&gt;&lt;p style=&quot;margin:0px;margin-left:4px;&quot;&gt;+ GetAllGamers(): List&amp;lt;Gamer&amp;gt;&lt;/p&gt;&lt;p style=&quot;margin:0px;margin-left:4px;&quot;&gt;&lt;/p&gt;" style="verticalAlign=top;align=left;overflow=fill;html=1;whiteSpace=wrap;" parent="1" vertex="1">
          <mxGeometry x="203" y="-240" width="247" height="140" as="geometry" />
        </mxCell>
        <mxCell id="u-PeWI92cw_HtkjGVOC9-139" style="edgeStyle=orthogonalEdgeStyle;rounded=0;orthogonalLoop=1;jettySize=auto;html=1;endArrow=open;endFill=0;endSize=10;startSize=6;" parent="1" source="u-PeWI92cw_HtkjGVOC9-127" target="5503DBVnJpyg0tcVdgBg-3" edge="1">
          <mxGeometry relative="1" as="geometry">
            <mxPoint x="-150" y="55" as="targetPoint" />
          </mxGeometry>
        </mxCell>
        <mxCell id="u-PeWI92cw_HtkjGVOC9-127" value="&lt;p style=&quot;margin:0px;margin-top:4px;text-align:center;&quot;&gt;&lt;b&gt;Gamer&lt;/b&gt;&lt;/p&gt;&lt;hr size=&quot;1&quot; style=&quot;border-style:solid;&quot;&gt;&lt;p style=&quot;margin:0px;margin-left:4px;&quot;&gt;+ prop GamerID: int&lt;/p&gt;&lt;p style=&quot;margin:0px;margin-left:4px;&quot;&gt;+ prop Name: string&lt;/p&gt;&lt;p style=&quot;margin:0px;margin-left:4px;&quot;&gt;+ prop Nickname: string&lt;/p&gt;&lt;p style=&quot;margin:0px;margin-left:4px;&quot;&gt;+ prop DateOfBirth: Date&lt;/p&gt;&lt;p style=&quot;margin:0px;margin-left:4px;&quot;&gt;+ prop AboutMe: string&lt;/p&gt;&lt;p style=&quot;margin:0px;margin-left:4px;&quot;&gt;+ prop Country: string&lt;/p&gt;&lt;p style=&quot;margin:0px;margin-left:4px;&quot;&gt;+ prop City: string&lt;/p&gt;&lt;p style=&quot;margin:0px;margin-left:4px;&quot;&gt;+ prop ContactMe: string&lt;/p&gt;&lt;p style=&quot;margin:0px;margin-left:4px;&quot;&gt;+ prop PhotoPath: string&lt;/p&gt;&lt;p style=&quot;margin:0px;margin-left:4px;&quot;&gt;+ prop Posts : List&amp;lt;Post&amp;gt;&lt;/p&gt;&lt;p style=&quot;margin:0px;margin-left:4px;&quot;&gt;+ prop Achievements: List&amp;lt;Achievement&amp;gt;&lt;br&gt;&lt;/p&gt;&lt;p style=&quot;margin:0px;margin-left:4px;&quot;&gt;+ prop BoardGameLibraty: List&amp;lt;BoardGame&amp;gt;&lt;br&gt;&lt;/p&gt;&lt;p style=&quot;margin:0px;margin-left:4px;&quot;&gt;+ prop Rating: Rating&lt;br&gt;&lt;/p&gt;&lt;p style=&quot;margin:0px;margin-left:4px;&quot;&gt;+ prop Rank: Rank&lt;br&gt;&lt;/p&gt;&lt;hr size=&quot;1&quot; style=&quot;border-style:solid;&quot;&gt;&lt;p style=&quot;margin:0px;margin-left:4px;&quot;&gt;+ SetRank(): void&lt;/p&gt;&lt;p style=&quot;margin:0px;margin-left:4px;&quot;&gt;+ AddAchievement(): void&lt;/p&gt;&lt;p style=&quot;margin:0px;margin-left:4px;&quot;&gt;+ ctor&lt;br&gt;&lt;/p&gt;" style="verticalAlign=top;align=left;overflow=fill;html=1;whiteSpace=wrap;" parent="1" vertex="1">
          <mxGeometry x="-80" y="-40" width="270" height="300" as="geometry" />
        </mxCell>
        <mxCell id="u-PeWI92cw_HtkjGVOC9-128" value="&lt;p style=&quot;margin:0px;margin-top:4px;text-align:center;&quot;&gt;&lt;b&gt;Rank&lt;/b&gt;&lt;/p&gt;&lt;hr size=&quot;1&quot; style=&quot;border-style:solid;&quot;&gt;&lt;p style=&quot;margin:0px;margin-left:4px;&quot;&gt;+ prop RankID: int&lt;/p&gt;&lt;p style=&quot;margin:0px;margin-left:4px;&quot;&gt;+ prop Name: string&lt;br&gt;&lt;/p&gt;&lt;hr size=&quot;1&quot; style=&quot;border-style:solid;&quot;&gt;&lt;p style=&quot;margin:0px;margin-left:4px;&quot;&gt;+ GetRank(): Rank&lt;/p&gt;&lt;p style=&quot;margin:0px;margin-left:4px;&quot;&gt;+ ctor&lt;/p&gt;" style="verticalAlign=top;align=left;overflow=fill;html=1;whiteSpace=wrap;" parent="1" vertex="1">
          <mxGeometry x="254" y="200" width="160" height="110" as="geometry" />
        </mxCell>
        <mxCell id="u-PeWI92cw_HtkjGVOC9-130" value="&lt;p style=&quot;margin:0px;margin-top:4px;text-align:center;&quot;&gt;&lt;b&gt;Achievement&lt;/b&gt;&lt;/p&gt;&lt;hr size=&quot;1&quot; style=&quot;border-style:solid;&quot;&gt;&lt;p style=&quot;margin:0px;margin-left:4px;&quot;&gt;+ prop AchievementID: int&lt;/p&gt;&lt;p style=&quot;margin:0px;margin-left:4px;&quot;&gt;+ prop AboutCondition: string&lt;/p&gt;&lt;p style=&quot;margin:0px;margin-left:4px;&quot;&gt;+ prop AboutReward: string&lt;/p&gt;&lt;p style=&quot;margin:0px;margin-left:4px;&quot;&gt;+ prop Rank: Rank&lt;br&gt;&lt;/p&gt;&lt;hr size=&quot;1&quot; style=&quot;border-style:solid;&quot;&gt;&lt;p style=&quot;margin:0px;margin-left:4px;&quot;&gt;+ ctor&lt;/p&gt;" style="verticalAlign=top;align=left;overflow=fill;html=1;whiteSpace=wrap;" parent="1" vertex="1">
          <mxGeometry x="250" y="50" width="180" height="120" as="geometry" />
        </mxCell>
        <mxCell id="u-PeWI92cw_HtkjGVOC9-132" value="&lt;p style=&quot;margin:0px;margin-top:4px;text-align:center;&quot;&gt;&lt;b&gt;BoardGame&lt;/b&gt;&lt;/p&gt;&lt;hr size=&quot;1&quot; style=&quot;border-style:solid;&quot;&gt;&lt;p style=&quot;margin:0px;margin-left:4px;&quot;&gt;+ prop BoardGameID: int&lt;/p&gt;&lt;p style=&quot;margin:0px;margin-left:4px;&quot;&gt;+ prop Name: string&lt;/p&gt;&lt;p style=&quot;margin:0px;margin-left:4px;&quot;&gt;+ prop Description: string&lt;br&gt;&lt;/p&gt;&lt;hr size=&quot;1&quot; style=&quot;border-style:solid;&quot;&gt;&lt;p style=&quot;margin:0px;margin-left:4px;&quot;&gt;+ ctor&lt;/p&gt;" style="verticalAlign=top;align=left;overflow=fill;html=1;whiteSpace=wrap;" parent="1" vertex="1">
          <mxGeometry x="250" y="-80" width="160" height="110" as="geometry" />
        </mxCell>
        <mxCell id="u-PeWI92cw_HtkjGVOC9-137" value="" style="endArrow=block;dashed=1;endFill=0;endSize=12;html=1;rounded=0;exitX=0;exitY=0.25;exitDx=0;exitDy=0;entryX=1;entryY=0.25;entryDx=0;entryDy=0;" parent="1" source="u-PeWI92cw_HtkjGVOC9-125" target="u-PeWI92cw_HtkjGVOC9-124" edge="1">
          <mxGeometry width="160" relative="1" as="geometry">
            <mxPoint x="533" y="-60" as="sourcePoint" />
            <mxPoint x="-157" y="-150" as="targetPoint" />
          </mxGeometry>
        </mxCell>
        <mxCell id="u-PeWI92cw_HtkjGVOC9-138" value="" style="endArrow=open;html=1;endSize=12;startArrow=diamondThin;startSize=14;startFill=0;edgeStyle=orthogonalEdgeStyle;align=left;verticalAlign=bottom;rounded=0;entryX=0;entryY=0.75;entryDx=0;entryDy=0;" parent="1" source="5503DBVnJpyg0tcVdgBg-4" target="u-PeWI92cw_HtkjGVOC9-127" edge="1">
          <mxGeometry x="-1" y="3" relative="1" as="geometry">
            <mxPoint x="-150" y="230" as="sourcePoint" />
            <mxPoint x="120" y="230" as="targetPoint" />
          </mxGeometry>
        </mxCell>
        <mxCell id="u-PeWI92cw_HtkjGVOC9-140" value="" style="endArrow=open;html=1;endSize=12;startArrow=diamondThin;startSize=14;startFill=0;edgeStyle=orthogonalEdgeStyle;align=left;verticalAlign=bottom;rounded=0;entryX=1;entryY=0.25;entryDx=0;entryDy=0;exitX=0;exitY=0.5;exitDx=0;exitDy=0;" parent="1" source="u-PeWI92cw_HtkjGVOC9-132" target="u-PeWI92cw_HtkjGVOC9-127" edge="1">
          <mxGeometry x="-1" y="3" relative="1" as="geometry">
            <mxPoint x="210" y="-45" as="sourcePoint" />
            <mxPoint x="120" y="220" as="targetPoint" />
          </mxGeometry>
        </mxCell>
        <mxCell id="u-PeWI92cw_HtkjGVOC9-141" value="" style="endArrow=open;html=1;endSize=12;startArrow=diamondThin;startSize=14;startFill=0;edgeStyle=orthogonalEdgeStyle;align=left;verticalAlign=bottom;rounded=0;" parent="1" target="u-PeWI92cw_HtkjGVOC9-127" edge="1" source="u-PeWI92cw_HtkjGVOC9-130">
          <mxGeometry x="-1" y="3" relative="1" as="geometry">
            <mxPoint x="250" y="65" as="sourcePoint" />
            <mxPoint x="140" y="15" as="targetPoint" />
          </mxGeometry>
        </mxCell>
        <mxCell id="u-PeWI92cw_HtkjGVOC9-152" value="" style="endArrow=open;html=1;endSize=12;startArrow=diamondThin;startSize=14;startFill=0;edgeStyle=orthogonalEdgeStyle;align=left;verticalAlign=bottom;rounded=0;" parent="1" source="u-PeWI92cw_HtkjGVOC9-126" target="u-PeWI92cw_HtkjGVOC9-125" edge="1">
          <mxGeometry x="-1" y="3" relative="1" as="geometry">
            <mxPoint x="203" y="65" as="sourcePoint" />
            <mxPoint x="123" y="115" as="targetPoint" />
          </mxGeometry>
        </mxCell>
        <mxCell id="u-PeWI92cw_HtkjGVOC9-153" value="" style="endArrow=open;html=1;endSize=12;startArrow=diamondThin;startSize=14;startFill=0;edgeStyle=orthogonalEdgeStyle;align=left;verticalAlign=bottom;rounded=0;" parent="1" target="u-PeWI92cw_HtkjGVOC9-127" edge="1">
          <mxGeometry x="-1" y="3" relative="1" as="geometry">
            <mxPoint x="8" y="-100" as="sourcePoint" />
            <mxPoint x="140" y="15" as="targetPoint" />
          </mxGeometry>
        </mxCell>
        <mxCell id="5503DBVnJpyg0tcVdgBg-1" style="edgeStyle=orthogonalEdgeStyle;rounded=0;orthogonalLoop=1;jettySize=auto;html=1;endArrow=open;endFill=0;endSize=10;startSize=6;" edge="1" parent="1" source="u-PeWI92cw_HtkjGVOC9-127" target="u-PeWI92cw_HtkjGVOC9-128">
          <mxGeometry relative="1" as="geometry">
            <mxPoint x="660" y="215" as="sourcePoint" />
            <mxPoint x="580" y="150" as="targetPoint" />
            <Array as="points">
              <mxPoint x="210" y="180" />
              <mxPoint x="210" y="255" />
            </Array>
          </mxGeometry>
        </mxCell>
        <mxCell id="5503DBVnJpyg0tcVdgBg-2" style="edgeStyle=orthogonalEdgeStyle;rounded=0;orthogonalLoop=1;jettySize=auto;html=1;endArrow=open;endFill=0;endSize=10;startSize=6;" edge="1" parent="1" source="u-PeWI92cw_HtkjGVOC9-130" target="u-PeWI92cw_HtkjGVOC9-128">
          <mxGeometry relative="1" as="geometry">
            <mxPoint x="540" y="130" as="sourcePoint" />
            <mxPoint x="620" y="155" as="targetPoint" />
            <Array as="points">
              <mxPoint x="450" y="90" />
              <mxPoint x="450" y="255" />
            </Array>
          </mxGeometry>
        </mxCell>
        <mxCell id="5503DBVnJpyg0tcVdgBg-3" value="&lt;p style=&quot;margin:0px;margin-top:4px;text-align:center;&quot;&gt;&lt;b&gt;Rating&lt;/b&gt;&lt;/p&gt;&lt;hr size=&quot;1&quot; style=&quot;border-style:solid;&quot;&gt;&lt;p style=&quot;margin:0px;margin-left:4px;&quot;&gt;+ prop GamerRating : int&lt;/p&gt;&amp;nbsp;+ prop OrganizerRating : int&lt;hr size=&quot;1&quot; style=&quot;border-style:solid;&quot;&gt;&lt;p style=&quot;margin:0px;margin-left:4px;&quot;&gt;+ GetRating(): Rating&lt;/p&gt;&lt;p style=&quot;margin:0px;margin-left:4px;&quot;&gt;+ ctor&lt;/p&gt;" style="verticalAlign=top;align=left;overflow=fill;html=1;whiteSpace=wrap;" vertex="1" parent="1">
          <mxGeometry x="-310" y="-10" width="160" height="110" as="geometry" />
        </mxCell>
        <mxCell id="5503DBVnJpyg0tcVdgBg-4" value="&lt;p style=&quot;margin:0px;margin-top:4px;text-align:center;&quot;&gt;&lt;b&gt;Post&lt;/b&gt;&lt;/p&gt;&lt;hr size=&quot;1&quot; style=&quot;border-style:solid;&quot;&gt;&lt;p style=&quot;margin:0px;margin-left:4px;&quot;&gt;+ prop PostID: int&lt;/p&gt;&lt;p style=&quot;margin:0px;margin-left:4px;&quot;&gt;+ prop Title : string&lt;/p&gt;&amp;nbsp;+ prop Text : string&lt;hr size=&quot;1&quot; style=&quot;border-style:solid;&quot;&gt;&lt;p style=&quot;margin:0px;margin-left:4px;&quot;&gt;+ ctor&lt;/p&gt;" style="verticalAlign=top;align=left;overflow=fill;html=1;whiteSpace=wrap;" vertex="1" parent="1">
          <mxGeometry x="-310" y="130" width="160" height="120" as="geometry" />
        </mxCell>
      </root>
    </mxGraphModel>
  </diagram>
</mxfile>
